<svg width="150" height="150" viewBox="0 0 150 150" fill="none" xmlns="http://www.w3.org/2000/svg">
<g filter="url(#filter0_ddi_1_112)">
<circle cx="71.4995" cy="71.5" r="48.5" fill="url(#paint0_linear_1_112)"/>
</g>
<path d="M84.3066 43.1396L95.0869 54.3772V97.1107H54.8159V97.2502H95.2244V54.5186L84.3066 43.1396Z" fill="#909090"/>
<path d="M84.1738 43H54.6792V97.1105H95.0877V54.3789L84.1738 43Z" fill="#F4F4F4"/>
<path d="M54.3801 45.9062H41.9995V59.1336H80.9433V45.9062H54.3801Z" fill="#7A7B7C"/>
<path d="M81.1526 58.9089H42.2534V45.6719H81.1526V58.9089Z" fill="#DD2025"/>
<path d="M55.1529 47.9097H55.0948H54.6937H52.6206V57.2097H54.6124V54.0729L55.0522 54.098C55.4795 54.0907 55.9029 54.0141 56.3057 53.8714C56.6589 53.7499 56.9839 53.5581 57.2609 53.3075C57.5428 53.0689 57.7651 52.7677 57.91 52.4279C58.1043 51.8631 58.1737 51.2629 58.1134 50.6687C58.1013 50.2442 58.0269 49.8238 57.8925 49.4209C57.7702 49.1301 57.5887 48.868 57.3596 48.6511C57.1304 48.4343 56.8586 48.2676 56.5615 48.1615C56.3046 48.0685 56.0392 48.001 55.769 47.96C55.5645 47.9285 55.3579 47.9116 55.151 47.9097M54.7848 52.3543H54.6124V49.4868H54.9863C55.1513 49.4749 55.3169 49.5002 55.4709 49.5609C55.6248 49.6216 55.7631 49.7161 55.8756 49.8375C56.1087 50.1494 56.2333 50.5292 56.2302 50.9186C56.2302 51.3952 56.2302 51.8273 55.8 52.1315C55.4902 52.3019 55.1375 52.3806 54.7848 52.3543Z" fill="#464648"/>
<path d="M61.895 47.8845C61.6799 47.8845 61.4707 47.9 61.3234 47.9058L60.8623 47.9175H59.3511V57.2175H61.1297C61.8094 57.2361 62.4862 57.1209 63.1214 56.8784C63.6328 56.6756 64.0856 56.3486 64.4389 55.9271C64.7826 55.5017 65.0292 55.0065 65.1616 54.4759C65.3139 53.875 65.3881 53.257 65.3825 52.6372C65.4201 51.9051 65.3634 51.1713 65.2139 50.4536C65.0721 49.9254 64.8064 49.4386 64.4389 49.0335C64.1506 48.7063 63.7977 48.4425 63.4024 48.2585C63.0629 48.1014 62.7058 47.9856 62.3387 47.9136C62.1927 47.8895 62.0449 47.8784 61.8969 47.8806M61.5443 55.5086H61.3506V49.5721H61.3758C61.7752 49.5261 62.1793 49.5982 62.5383 49.7794C62.8011 49.9893 63.0153 50.2537 63.166 50.5544C63.3287 50.8709 63.4224 51.2182 63.4411 51.5735C63.4586 51.9998 63.4411 52.3485 63.4411 52.6372C63.449 52.9698 63.4276 53.3024 63.3772 53.6311C63.3175 53.9687 63.2071 54.2953 63.0498 54.5999C62.8717 54.8831 62.6311 55.1217 62.3464 55.2974C62.1074 55.452 61.8243 55.5241 61.5404 55.5028" fill="#464648"/>
<path d="M71.3834 47.9175H66.6753V57.2175H68.667V53.5285H71.1858V51.8002H68.667V49.6457H71.3795V47.9175" fill="#464648"/>
<path d="M79.8151 78.3692C79.8151 78.3692 85.9918 77.2493 85.9918 79.3592C85.9918 81.4692 82.1653 80.6109 79.8151 78.3692ZM75.2484 78.53C74.267 78.7468 73.3107 79.0643 72.3945 79.4774L73.1695 77.7337C73.9445 75.9899 74.7485 73.6126 74.7485 73.6126C75.6733 75.1691 76.7493 76.6306 77.9609 77.9759C77.0472 78.1121 76.1417 78.2984 75.2484 78.5339V78.53ZM72.8033 65.9362C72.8033 64.0975 73.3981 63.5957 73.8611 63.5957C74.3242 63.5957 74.8454 63.8185 74.8628 65.415C74.712 67.0204 74.3758 68.6029 73.8611 70.1309C73.1561 68.848 72.7913 67.4059 72.8013 65.942L72.8033 65.9362ZM63.7958 86.311C61.901 85.1775 67.7696 81.6881 68.8333 81.5757C68.8275 81.5777 65.7798 87.4967 63.7958 86.311ZM87.7956 79.6092C87.7763 79.4154 87.6019 77.2706 83.785 77.3617C82.1941 77.336 80.6039 77.4482 79.0323 77.6969C77.51 76.1631 76.199 74.4332 75.1341 72.5528C75.805 70.6142 76.211 68.5938 76.3411 66.5465C76.285 64.2215 75.7289 62.8885 73.9464 62.9079C72.1639 62.9273 71.9043 64.487 72.1387 66.8081C72.3684 68.3679 72.8015 69.8908 73.4271 71.338C73.4271 71.338 72.6037 73.9013 71.5148 76.451C70.426 79.0008 69.682 80.3377 69.682 80.3377C67.7885 80.9541 66.006 81.8698 64.4023 83.0502C62.8058 84.5362 62.1567 85.6774 62.9976 86.8186C63.7222 87.8029 66.2584 88.0257 68.5253 85.0555C69.7297 83.5214 70.8301 81.9084 71.819 80.2272C71.819 80.2272 75.2755 79.2798 76.3508 79.0202C77.4261 78.7605 78.7262 78.5552 78.7262 78.5552C78.7262 78.5552 81.8824 81.7307 84.9262 81.6184C87.97 81.506 87.8228 79.799 87.8034 79.613" fill="#DD2025"/>
<path d="M84.0229 43.1494V54.5284H94.9369L84.0229 43.1494Z" fill="#909090"/>
<path d="M84.1714 43V54.3789H95.0853L84.1714 43Z" fill="#F4F4F4"/>
<path d="M55.0006 47.7603H54.9424H54.5414H52.4683V57.0603H54.4678V53.9254L54.9095 53.9506C55.3369 53.9432 55.7602 53.8667 56.1631 53.7239C56.5163 53.6023 56.8412 53.4106 57.1183 53.1601C57.398 52.9208 57.6183 52.6196 57.7615 52.2804C57.9558 51.7157 58.0252 51.1154 57.9649 50.5212C57.9528 50.0967 57.8784 49.6763 57.7441 49.2734C57.6218 48.9826 57.4403 48.7205 57.2111 48.5037C56.9819 48.2868 56.7101 48.1201 56.413 48.0141C56.1549 47.9202 55.8882 47.852 55.6167 47.8106C55.4121 47.7791 55.2056 47.7622 54.9986 47.7603M54.6324 52.2049H54.46V49.3374H54.8359C55.0009 49.3255 55.1665 49.3508 55.3205 49.4115C55.4744 49.4722 55.6127 49.5667 55.7252 49.6881C55.9583 50 56.0828 50.3798 56.0798 50.7692C56.0798 51.2458 56.0798 51.6779 55.6496 51.9821C55.3398 52.1525 54.9871 52.2292 54.6344 52.2029" fill="white"/>
<path d="M61.7447 47.7351C61.5296 47.7351 61.3204 47.7506 61.1731 47.7564L60.7178 47.768H59.2065V57.068H60.9852C61.6649 57.0867 62.3416 56.9715 62.9769 56.729C63.4882 56.5262 63.941 56.1992 64.2944 55.7777C64.6381 55.3523 64.8847 54.857 65.0171 54.3265C65.1693 53.7256 65.2436 53.1076 65.238 52.4878C65.2756 51.7557 65.2189 51.0219 65.0694 50.3042C64.9276 49.776 64.6619 49.2892 64.2944 48.884C64.0061 48.5569 63.6532 48.293 63.2579 48.109C62.9184 47.9519 62.5613 47.8362 62.1942 47.7642C62.0482 47.7401 61.9004 47.729 61.7524 47.7312M61.3998 55.3592H61.206V49.4227H61.2312C61.6307 49.3767 62.0348 49.4488 62.3937 49.63C62.6566 49.8399 62.8708 50.1043 63.0215 50.405C63.1841 50.7214 63.2779 51.0688 63.2966 51.4241C63.314 51.8504 63.2966 52.1991 63.2966 52.4878C63.3045 52.8203 63.2831 53.1529 63.2327 53.4817C63.173 53.8193 63.0626 54.1459 62.9052 54.4505C62.7272 54.7337 62.4866 54.9723 62.2019 55.148C61.9629 55.3026 61.6798 55.3747 61.3959 55.3534" fill="white"/>
<path d="M71.235 47.7681H66.5269V57.0681H68.5186V53.3791H71.0374V51.6508H68.5186V49.4963H71.2311V47.7681" fill="white"/>
<defs>
<filter id="filter0_ddi_1_112" x="-0.000488281" y="0" width="150" height="150" filterUnits="userSpaceOnUse" color-interpolation-filters="sRGB">
<feFlood flood-opacity="0" result="BackgroundImageFix"/>
<feColorMatrix in="SourceAlpha" type="matrix" values="0 0 0 0 0 0 0 0 0 0 0 0 0 0 0 0 0 0 127 0" result="hardAlpha"/>
<feOffset dx="-3" dy="-3"/>
<feGaussianBlur stdDeviation="10"/>
<feComposite in2="hardAlpha" operator="out"/>
<feColorMatrix type="matrix" values="0 0 0 0 1 0 0 0 0 1 0 0 0 0 1 0 0 0 0.18 0"/>
<feBlend mode="normal" in2="BackgroundImageFix" result="effect1_dropShadow_1_112"/>
<feColorMatrix in="SourceAlpha" type="matrix" values="0 0 0 0 0 0 0 0 0 0 0 0 0 0 0 0 0 0 127 0" result="hardAlpha"/>
<feOffset dx="10" dy="10"/>
<feGaussianBlur stdDeviation="10"/>
<feComposite in2="hardAlpha" operator="out"/>
<feColorMatrix type="matrix" values="0 0 0 0 0 0 0 0 0 0 0 0 0 0 0 0 0 0 0.8 0"/>
<feBlend mode="normal" in2="effect1_dropShadow_1_112" result="effect2_dropShadow_1_112"/>
<feBlend mode="normal" in="SourceGraphic" in2="effect2_dropShadow_1_112" result="shape"/>
<feColorMatrix in="SourceAlpha" type="matrix" values="0 0 0 0 0 0 0 0 0 0 0 0 0 0 0 0 0 0 127 0" result="hardAlpha"/>
<feOffset dx="-4" dy="-4"/>
<feGaussianBlur stdDeviation="3"/>
<feComposite in2="hardAlpha" operator="arithmetic" k2="-1" k3="1"/>
<feColorMatrix type="matrix" values="0 0 0 0 1 0 0 0 0 1 0 0 0 0 1 0 0 0 0.5 0"/>
<feBlend mode="normal" in2="shape" result="effect3_innerShadow_1_112"/>
</filter>
<linearGradient id="paint0_linear_1_112" x1="41.5912" y1="27.85" x2="93.3245" y2="109.492" gradientUnits="userSpaceOnUse">
<stop offset="0.28125" stop-color="white"/>
<stop offset="0.645833" stop-color="#C1C0C4"/>
<stop offset="0.864583" stop-color="#86848D"/>
<stop offset="1" stop-color="#343140"/>
</linearGradient>
</defs>
</svg>
